<svg width="42" height="42" viewBox="0 0 42 42" fill="none" xmlns="http://www.w3.org/2000/svg">
  <path fill-rule="evenodd" clip-rule="evenodd"
        d="M26.4296 40.1624H36.3316C36.6026 40.1624 36.8243 39.918 36.8243 39.6166V20.9666C36.8243 20.6579 36.9739 20.3694 37.222 20.1984C37.4701 20.0294 37.7851 20.0036 38.0561 20.1249C38.2726 20.2223 38.9466 20.4759 39.4886 20.4759C39.705 20.4759 39.8704 20.4337 39.925 20.3657C40.4054 19.7592 40.335 18.8513 39.7701 18.3404L22.0092 2.27259C21.937 2.23767 21.8719 2.19724 21.8174 2.14762C21.3423 1.72125 20.6032 1.72125 20.1298 2.14762L2.22987 18.3404C1.665 18.8513 1.59461 19.7592 2.07501 20.3657C2.12956 20.4337 2.29674 20.4759 2.51143 20.4759C3.05342 20.4759 3.72916 20.2223 3.94384 20.1249C4.2166 20 4.52983 20.0294 4.77795 20.1984C5.02607 20.3694 5.17741 20.6579 5.17741 20.9666V39.6166C5.17741 39.918 5.39738 40.1624 5.67013 40.1624H15.5721V24.9822C15.5721 24.4732 15.9645 24.0633 16.452 24.0633H25.5498C26.0354 24.0633 26.4296 24.4732 26.4296 24.9822V40.1624ZM25.5498 42C25.0641 42 24.6699 41.5883 24.6699 41.0811V25.9009H17.3318V41.0811C17.3318 41.5883 16.9377 42 16.452 42H5.67014C4.42777 42 3.41769 40.9304 3.41769 39.6164V22.2106C3.13261 22.2713 2.82114 22.3135 2.51143 22.3135C1.5383 22.3135 0.999825 21.8927 0.720028 21.538C-0.365723 20.1688 -0.205588 18.1105 1.07901 16.9509L18.9772 0.758045C20.0383 -0.201284 21.696 -0.25458 22.8099 0.623886C22.8891 0.658804 22.963 0.704749 23.0228 0.758045L40.921 16.9509C42.2056 18.1105 42.3657 20.1688 41.28 21.538C41.0002 21.8927 40.4617 22.3135 39.4886 22.3135C39.1789 22.3135 38.8691 22.2713 38.5841 22.2106V39.6164C38.5841 40.9304 37.574 42 36.3316 42H25.5498Z"
        fill="#51A77A"/>
</svg>
