<svg width="110" height="107" viewBox="0 0 110 107" fill="none" xmlns="http://www.w3.org/2000/svg">
  <path d="M24.6342 50.653L24.1464 50.0599C23.5366 49.3481 23.6586 48.2805 24.4512 47.6874L53.2927 25.5044C54.5732 24.4961 56.4025 24.5554 57.622 25.5637L62.0732 29.1225V27.699C62.0732 25.8603 63.5976 24.3182 65.5488 24.3182H73.9025C75.7927 24.3182 77.3781 25.801 77.3781 27.699V41.2816L85.6098 47.6874C86.3415 48.2805 86.4634 49.3481 85.8537 50.0599L85.3659 50.653C84.7561 51.3647 83.6586 51.4834 82.9269 50.8902L73.1098 43.2389V28.4701H66.4025V37.9008L55.4269 29.1818L27.0732 50.9496C26.2805 51.5427 25.2439 51.3647 24.6342 50.653Z" fill="#51A77A"/>
  <path d="M73.1098 50.0599V74.9712H36.8293V50.3564L32.561 53.6186V75.7422C32.561 77.5809 34.0854 79.1231 36.0366 79.1231H73.9635C75.8537 79.1231 77.4391 77.6402 77.4391 75.7422V53.4407L73.1098 50.0599Z" fill="#51A77A"/>
  <path d="M68.1706 54.1524C67.9267 54.0931 62.012 52.4324 57.8657 55.3387C57.134 55.8725 56.5242 56.4656 56.0364 57.1181C55.3657 55.9911 54.512 54.9235 53.3535 54.0931C49.2071 51.2461 43.2925 52.8476 43.0486 52.9069C42.073 53.2034 41.4632 54.0338 41.5242 54.9828C41.5242 55.2201 41.8901 61.2106 45.9754 64.0577C47.8657 65.3625 50.1827 65.7184 52.134 65.7184C52.5608 65.7184 52.9266 65.7184 53.2925 65.6591V75.505C53.2925 76.6319 54.2681 77.5809 55.4266 77.5809C56.5852 77.5809 57.5608 76.6319 57.5608 75.505V66.8453C58.0486 66.9047 58.5364 66.9047 59.0852 66.9047C61.0364 66.9047 63.2925 66.5488 65.2437 65.2439C69.3901 62.3969 69.6949 56.4063 69.6949 56.1691C69.7559 55.2794 69.0852 54.449 68.1706 54.1524ZM48.4754 60.7361C47.134 59.7871 46.4023 58.0078 46.0974 56.5843C47.6218 56.4656 49.573 56.5249 50.9145 57.4739C52.2559 58.423 52.9876 60.2023 53.2925 61.6258C51.7681 61.7445 49.8169 61.6851 48.4754 60.7361ZM62.7437 61.9817C61.4023 62.9307 59.451 62.99 57.9266 62.8714C58.2925 61.4479 59.0242 59.6685 60.3047 58.7195C61.6462 57.7705 63.5974 57.7112 65.1218 57.8298C64.8169 59.2533 64.0852 61.0327 62.7437 61.9817Z" fill="#51A77A"/>
</svg>
