<svg width="77" height="79" viewBox="0 0 77 79" fill="none" xmlns="http://www.w3.org/2000/svg">
  <path d="M17.2444 37.4131L16.8922 36.9559C16.4776 36.418 16.5669 35.6371 17.0911 35.2122L37.299 18.824C38.1917 18.0999 39.4553 18.1118 40.3352 18.8524L43.47 21.4918V20.4354C43.47 19.064 44.5535 17.9523 45.8902 17.9523H51.7218C53.0585 17.9523 54.142 19.064 54.142 20.4354V30.4704L59.9023 35.2201C60.4231 35.6498 60.5064 36.4311 60.0876 36.9655L59.7315 37.4202C59.3127 37.9545 58.5511 38.0399 58.0303 37.6102L51.1536 31.9403V21.0179H46.4584V27.9725L38.7932 21.5207L18.9443 37.6177C18.4197 38.043 17.6585 37.9514 17.2444 37.4131Z" fill="#002776"/>
  <path d="M51.1933 36.9633V55.3537H25.7882V37.1714L22.7998 39.5953V55.9366C22.7998 57.308 23.8833 58.4197 25.22 58.4197H51.7611C53.0978 58.4197 54.1813 57.308 54.1813 55.9366V39.4617L51.1933 36.9633Z" fill="#002776"/>
  <path d="M38.5013 49.7385C37.9476 49.7385 37.414 49.5694 36.9581 49.2501C35.387 48.1507 32.6979 45.8293 31.6366 44.1093C30.434 42.1602 30.2713 39.8603 31.2118 38.1074C32.0281 36.5862 33.5393 35.7137 35.358 35.7137C36.3894 35.7137 37.4605 36.1026 38.5009 36.8477C39.5422 36.1026 40.6128 35.7137 41.6438 35.7137C43.4625 35.7137 44.9738 36.5862 45.79 38.1074C46.7309 39.8603 46.5678 42.1602 45.3657 44.1093C44.3048 45.8293 41.6152 48.1512 40.0438 49.2501C39.5878 49.5694 39.0542 49.7385 38.5013 49.7385ZM35.3576 38.5603C34.5584 38.5603 33.965 38.8783 33.6422 39.4801C33.1965 40.3105 33.3293 41.5303 33.9808 42.5864C34.7031 43.7576 36.9363 45.7851 38.5009 46.884C40.0655 45.7847 42.2983 43.7576 43.0206 42.5864C43.6721 41.5303 43.8049 40.3114 43.3587 39.4801C43.036 38.8787 42.4426 38.5603 41.6434 38.5603C41.0154 38.5603 40.2325 38.972 39.4393 39.7201L38.5001 40.6053L37.5613 39.7201C36.7689 38.9724 35.986 38.5603 35.3576 38.5603Z" fill="#002776"/>
</svg>
